<svg id="e6t4CrjHG1e1" xmlns="http://www.w3.org/2000/svg" xmlns:xlink="http://www.w3.org/1999/xlink" viewBox="0 0 1265 799" shape-rendering="geometricPrecision" text-rendering="geometricPrecision">
<style> 
<animate attributeName="opacity" dur="5s" from="0" to="1"   />
<![CDATA[
#e6t4CrjHG1e2 {animation: e6t4CrjHG1e2_c_o 3500ms linear 1 normal forwards}@keyframes e6t4CrjHG1e2_c_o { 0% {opacity: 0} 36.666667% {opacity: 0} 55.666667% {opacity: 1} 100% {opacity: 1}} #e6t4CrjHG1e3 {animation: e6t4CrjHG1e3_c_o 3500ms linear 1 normal forwards}@keyframes e6t4CrjHG1e3_c_o { 0% {opacity: 0} 46.333333% {opacity: 0} 64.666667% {opacity: 1} 100% {opacity: 1}} #e6t4CrjHG1e4 {animation: e6t4CrjHG1e4_c_o 3500ms linear 1 normal forwards}@keyframes e6t4CrjHG1e4_c_o { 0% {opacity: 0} 41% {opacity: 0} 60% {opacity: 1} 100% {opacity: 1}} #e6t4CrjHG1e5 {animation: e6t4CrjHG1e5_c_o 3500ms linear 1 normal forwards}@keyframes e6t4CrjHG1e5_c_o { 0% {opacity: 0} 45% {opacity: 0} 63.333333% {opacity: 1} 100% {opacity: 1}} #e6t4CrjHG1e6 {animation: e6t4CrjHG1e6_c_o 3500ms linear 1 normal forwards}@keyframes e6t4CrjHG1e6_c_o { 0% {opacity: 0} 43% {opacity: 0} 62% {opacity: 1} 100% {opacity: 1}} #e6t4CrjHG1e7 {animation: e6t4CrjHG1e7_c_o 3500ms linear 1 normal forwards}@keyframes e6t4CrjHG1e7_c_o { 0% {opacity: 0} 47.333333% {opacity: 0} 65.666667% {opacity: 1} 100% {opacity: 1}} #e6t4CrjHG1e8 {animation: e6t4CrjHG1e8_c_o 3500ms linear 1 normal forwards}@keyframes e6t4CrjHG1e8_c_o { 0% {opacity: 0} 39.333333% {opacity: 0} 58.333333% {opacity: 1} 100% {opacity: 1}} #e6t4CrjHG1e9 {animation: e6t4CrjHG1e9_c_o 3500ms linear 1 normal forwards}@keyframes e6t4CrjHG1e9_c_o { 0% {opacity: 0} 52% {opacity: 0} 70.333333% {opacity: 1} 100% {opacity: 1}} #e6t4CrjHG1e10 {animation: e6t4CrjHG1e10_c_o 3500ms linear 1 normal forwards}@keyframes e6t4CrjHG1e10_c_o { 0% {opacity: 0} 53% {opacity: 0} 71.333333% {opacity: 1} 100% {opacity: 1}} #e6t4CrjHG1e11 {animation: e6t4CrjHG1e11_c_o 3500ms linear 1 normal forwards}@keyframes e6t4CrjHG1e11_c_o { 0% {opacity: 0} 45% {opacity: 0} 63.333333% {opacity: 1} 100% {opacity: 1}} #e6t4CrjHG1e12 {animation: e6t4CrjHG1e12_c_o 3500ms linear 1 normal forwards}@keyframes e6t4CrjHG1e12_c_o { 0% {opacity: 0} 37.333333% {opacity: 0} 56.333333% {opacity: 1} 100% {opacity: 1}} #e6t4CrjHG1e13 {animation: e6t4CrjHG1e13_c_o 3500ms linear 1 normal forwards}@keyframes e6t4CrjHG1e13_c_o { 0% {opacity: 0} 51.333333% {opacity: 0} 69.666667% {opacity: 1} 100% {opacity: 1}} #e6t4CrjHG1e14 {animation: e6t4CrjHG1e14_c_o 3500ms linear 1 normal forwards}@keyframes e6t4CrjHG1e14_c_o { 0% {opacity: 0} 54% {opacity: 0} 72.333333% {opacity: 1} 100% {opacity: 1}} #e6t4CrjHG1e15 {animation: e6t4CrjHG1e15_c_o 3500ms linear 1 normal forwards}@keyframes e6t4CrjHG1e15_c_o { 0% {opacity: 0} 50.666667% {opacity: 0} 69% {opacity: 1} 100% {opacity: 1}} #e6t4CrjHG1e16 {animation: e6t4CrjHG1e16_c_o 3500ms linear 1 normal forwards}@keyframes e6t4CrjHG1e16_c_o { 0% {opacity: 0} 49% {opacity: 0} 67.333333% {opacity: 1} 100% {opacity: 1}} #e6t4CrjHG1e17 {animation: e6t4CrjHG1e17_c_o 3500ms linear 1 normal forwards}@keyframes e6t4CrjHG1e17_c_o { 0% {opacity: 0} 55% {opacity: 0} 73.333333% {opacity: 1} 100% {opacity: 1}} #e6t4CrjHG1e18 {animation: e6t4CrjHG1e18_c_o 3500ms linear 1 normal forwards}@keyframes e6t4CrjHG1e18_c_o { 0% {opacity: 0} 49% {opacity: 0} 67.333333% {opacity: 1} 100% {opacity: 1}} #e6t4CrjHG1e19 {animation: e6t4CrjHG1e19_c_o 3500ms linear 1 normal forwards}@keyframes e6t4CrjHG1e19_c_o { 0% {opacity: 0} 15.333333% {opacity: 0} 34.333333% {opacity: 1} 100% {opacity: 1}} #e6t4CrjHG1e20 {animation: e6t4CrjHG1e20_c_o 3500ms linear 1 normal forwards}@keyframes e6t4CrjHG1e20_c_o { 0% {opacity: 0} 25.666667% {opacity: 0} 44.666667% {opacity: 1} 100% {opacity: 1}} #e6t4CrjHG1e21 {animation: e6t4CrjHG1e21_c_o 3500ms linear 1 normal forwards}@keyframes e6t4CrjHG1e21_c_o { 0% {opacity: 0} 18.333333% {opacity: 0} 35.666667% {opacity: 1} 100% {opacity: 1}} #e6t4CrjHG1e22 {animation: e6t4CrjHG1e22_c_o 3500ms linear 1 normal forwards}@keyframes e6t4CrjHG1e22_c_o { 0% {opacity: 0} 19% {opacity: 0} 38% {opacity: 1} 100% {opacity: 1}} #e6t4CrjHG1e23 {animation: e6t4CrjHG1e23_c_o 3500ms linear 1 normal forwards}@keyframes e6t4CrjHG1e23_c_o { 0% {opacity: 0} 20% {opacity: 0} 39% {opacity: 1} 100% {opacity: 1}} #e6t4CrjHG1e24 {animation: e6t4CrjHG1e24_c_o 3500ms linear 1 normal forwards}@keyframes e6t4CrjHG1e24_c_o { 0% {opacity: 0} 21.666667% {opacity: 0} 40.666667% {opacity: 1} 100% {opacity: 1}} #e6t4CrjHG1e25 {animation: e6t4CrjHG1e25_c_o 3500ms linear 1 normal forwards}@keyframes e6t4CrjHG1e25_c_o { 0% {opacity: 0} 16.333333% {opacity: 0} 35.333333% {opacity: 1} 100% {opacity: 1}} #e6t4CrjHG1e26 {animation: e6t4CrjHG1e26_c_o 3500ms linear 1 normal forwards}@keyframes e6t4CrjHG1e26_c_o { 0% {opacity: 0} 26.666667% {opacity: 0} 45.666667% {opacity: 1} 100% {opacity: 1}} #e6t4CrjHG1e27 {animation: e6t4CrjHG1e27_c_o 3500ms linear 1 normal forwards}@keyframes e6t4CrjHG1e27_c_o { 0% {opacity: 0} 28.333333% {opacity: 0} 47.333333% {opacity: 1} 100% {opacity: 1}} #e6t4CrjHG1e28 {animation: e6t4CrjHG1e28_c_o 3500ms linear 1 normal forwards}@keyframes e6t4CrjHG1e28_c_o { 0% {opacity: 0} 22.666667% {opacity: 0} 41.666667% {opacity: 1} 100% {opacity: 1}} #e6t4CrjHG1e29 {animation: e6t4CrjHG1e29_c_o 3500ms linear 1 normal forwards}@keyframes e6t4CrjHG1e29_c_o { 0% {opacity: 0} 17.666667% {opacity: 0} 36.666667% {opacity: 1} 100% {opacity: 1}} #e6t4CrjHG1e30 {animation: e6t4CrjHG1e30_c_o 3500ms linear 1 normal forwards}@keyframes e6t4CrjHG1e30_c_o { 0% {opacity: 0} 32% {opacity: 0} 51% {opacity: 1} 100% {opacity: 1}} #e6t4CrjHG1e31 {animation: e6t4CrjHG1e31_c_o 3500ms linear 1 normal forwards}@keyframes e6t4CrjHG1e31_c_o { 0% {opacity: 0} 30% {opacity: 0} 49% {opacity: 1} 100% {opacity: 1}} #e6t4CrjHG1e32 {animation: e6t4CrjHG1e32_c_o 3500ms linear 1 normal forwards}@keyframes e6t4CrjHG1e32_c_o { 0% {opacity: 0} 33.666667% {opacity: 0} 52.666667% {opacity: 1} 100% {opacity: 1}} #e6t4CrjHG1e33 {animation: e6t4CrjHG1e33_c_o 3500ms linear 1 normal forwards}@keyframes e6t4CrjHG1e33_c_o { 0% {opacity: 0} 30% {opacity: 0} 49% {opacity: 1} 100% {opacity: 1}} #e6t4CrjHG1e34 {animation: e6t4CrjHG1e34_c_o 3500ms linear 1 normal forwards}@keyframes e6t4CrjHG1e34_c_o { 0% {opacity: 0} 35.333333% {opacity: 0} 54.333333% {opacity: 1} 100% {opacity: 1}} #e6t4CrjHG1e35 {animation: e6t4CrjHG1e35_c_o 3500ms linear 1 normal forwards}@keyframes e6t4CrjHG1e35_c_o { 0% {opacity: 0} 24% {opacity: 0} 43% {opacity: 1} 100% {opacity: 1}} #e6t4CrjHG1e36 {animation: e6t4CrjHG1e36_c_o 3500ms linear 1 normal forwards}@keyframes e6t4CrjHG1e36_c_o { 0% {opacity: 0} 10.666667% {opacity: 0} 29.333333% {opacity: 1} 100% {opacity: 1}} #e6t4CrjHG1e37 {animation: e6t4CrjHG1e37_c_o 3500ms linear 1 normal forwards}@keyframes e6t4CrjHG1e37_c_o { 0% {opacity: 0} 13.333333% {opacity: 0} 32% {opacity: 1} 100% {opacity: 1}} #e6t4CrjHG1e38 {animation: e6t4CrjHG1e38_c_o 3500ms linear 1 normal forwards}@keyframes e6t4CrjHG1e38_c_o { 0% {opacity: 0} 16% {opacity: 0} 35% {opacity: 1} 100% {opacity: 1}} #e6t4CrjHG1e39 {animation: e6t4CrjHG1e39_c_o 3500ms linear 1 normal forwards}@keyframes e6t4CrjHG1e39_c_o { 0% {opacity: 0} 14.333333% {opacity: 0} 33.333333% {opacity: 1} 100% {opacity: 1}} #e6t4CrjHG1e40 {animation: e6t4CrjHG1e40_c_o 3500ms linear 1 normal forwards}@keyframes e6t4CrjHG1e40_c_o { 0% {opacity: 0} 12% {opacity: 0} 30.666667% {opacity: 1} 100% {opacity: 1}} #e6t4CrjHG1e41 {animation: e6t4CrjHG1e41_c_o 3500ms linear 1 normal forwards}@keyframes e6t4CrjHG1e41_c_o { 0% {opacity: 0} 10% {opacity: 1} 100% {opacity: 1}} #e6t4CrjHG1e42 {animation: e6t4CrjHG1e42_c_o 3500ms linear 1 normal forwards}@keyframes e6t4CrjHG1e42_c_o { 0% {opacity: 0} 5.666667% {opacity: 0} 22.666667% {opacity: 1} 100% {opacity: 1}} #e6t4CrjHG1e43 {animation: e6t4CrjHG1e43_c_o 3500ms linear 1 normal forwards}@keyframes e6t4CrjHG1e43_c_o { 0% {opacity: 0} 2% {opacity: 0} 19% {opacity: 1} 100% {opacity: 1}} #e6t4CrjHG1e44 {animation: e6t4CrjHG1e44_c_o 3500ms linear 1 normal forwards}@keyframes e6t4CrjHG1e44_c_o { 0% {opacity: 0} 2% {opacity: 0} 19% {opacity: 1} 100% {opacity: 1}} #e6t4CrjHG1e45 {animation: e6t4CrjHG1e45_c_o 3500ms linear 1 normal forwards}@keyframes e6t4CrjHG1e45_c_o { 0% {opacity: 0} 1.333333% {opacity: 0} 18.333333% {opacity: 1} 100% {opacity: 1}} #e6t4CrjHG1e46 {animation: e6t4CrjHG1e46_c_o 3500ms linear 1 normal forwards}@keyframes e6t4CrjHG1e46_c_o { 0% {opacity: 0} 3% {opacity: 0} 20% {opacity: 1} 100% {opacity: 1}} #e6t4CrjHG1e47 {animation: e6t4CrjHG1e47_c_o 3500ms linear 1 normal forwards}@keyframes e6t4CrjHG1e47_c_o { 0% {opacity: 0} 0.666667% {opacity: 0} 17.666667% {opacity: 1} 100% {opacity: 1}} #e6t4CrjHG1e48 {animation: e6t4CrjHG1e48_c_o 3500ms linear 1 normal forwards}@keyframes e6t4CrjHG1e48_c_o { 0% {opacity: 0} 5.666667% {opacity: 0} 22.666667% {opacity: 1} 100% {opacity: 1}} #e6t4CrjHG1e49 {animation: e6t4CrjHG1e49_c_o 3500ms linear 1 normal forwards}@keyframes e6t4CrjHG1e49_c_o { 0% {opacity: 0} 6.666667% {opacity: 0} 25.333333% {opacity: 1} 100% {opacity: 1}} #e6t4CrjHG1e50 {animation: e6t4CrjHG1e50_c_o 3500ms linear 1 normal forwards}@keyframes e6t4CrjHG1e50_c_o { 0% {opacity: 0} 3.666667% {opacity: 0} 20.666667% {opacity: 1} 100% {opacity: 1}} #e6t4CrjHG1e51 {animation: e6t4CrjHG1e51_c_o 3500ms linear 1 normal forwards}@keyframes e6t4CrjHG1e51_c_o { 0% {opacity: 0} 0.666667% {opacity: 0} 17.666667% {opacity: 1} 100% {opacity: 1}} #e6t4CrjHG1e52 {animation: e6t4CrjHG1e52_c_o 3500ms linear 1 normal forwards}@keyframes e6t4CrjHG1e52_c_o { 0% {opacity: 0} 8% {opacity: 0} 26.666667% {opacity: 1} 100% {opacity: 1}} #e6t4CrjHG1e53 {animation: e6t4CrjHG1e53_c_o 3500ms linear 1 normal forwards}@keyframes e6t4CrjHG1e53_c_o { 0% {opacity: 0} 9.333333% {opacity: 0} 28% {opacity: 1} 100% {opacity: 1}} #e6t4CrjHG1e54 {animation: e6t4CrjHG1e54_c_o 3500ms linear 1 normal forwards}@keyframes e6t4CrjHG1e54_c_o { 0% {opacity: 0} 8% {opacity: 0} 26.666667% {opacity: 1} 100% {opacity: 1}} #e6t4CrjHG1e55 {animation: e6t4CrjHG1e55_c_o 3500ms linear 1 normal forwards}@keyframes e6t4CrjHG1e55_c_o { 0% {opacity: 0} 6.666667% {opacity: 0} 23.666667% {opacity: 1} 100% {opacity: 1}} #e6t4CrjHG1e56 {animation: e6t4CrjHG1e56_c_o 3500ms linear 1 normal forwards}@keyframes e6t4CrjHG1e56_c_o { 0% {opacity: 0} 12% {opacity: 0} 30.666667% {opacity: 1} 100% {opacity: 1}} #e6t4CrjHG1e57 {animation: e6t4CrjHG1e57_c_o 3500ms linear 1 normal forwards}@keyframes e6t4CrjHG1e57_c_o { 0% {opacity: 0} 4.666667% {opacity: 0} 21.666667% {opacity: 1} 100% {opacity: 1}}
]]></style>
<defs><linearGradient id="e6t4CrjHG1e2-fill" x1="161.635" y1="561.93" x2="162.525" y2="-11.6718" spreadMethod="pad" gradientUnits="userSpaceOnUse" gradientTransform="translate(0 0)"><stop id="e6t4CrjHG1e2-fill-0" offset="0%" stop-color="#88de1f"/><stop id="e6t4CrjHG1e2-fill-1" offset="100%" stop-color="rgba(143,234,33,0)"/></linearGradient><linearGradient id="e6t4CrjHG1e3-fill" x1="161.635" y1="561.93" x2="162.525" y2="-11.6718" spreadMethod="pad" gradientUnits="userSpaceOnUse" gradientTransform="translate(0 0)"><stop id="e6t4CrjHG1e3-fill-0" offset="0%" stop-color="#88de1f"/><stop id="e6t4CrjHG1e3-fill-1" offset="100%" stop-color="rgba(143,234,33,0)"/></linearGradient><linearGradient id="e6t4CrjHG1e4-fill" x1="161.635" y1="561.93" x2="162.525" y2="-11.6718" spreadMethod="pad" gradientUnits="userSpaceOnUse" gradientTransform="translate(0 0)"><stop id="e6t4CrjHG1e4-fill-0" offset="0%" stop-color="#88de1f"/><stop id="e6t4CrjHG1e4-fill-1" offset="100%" stop-color="rgba(143,234,33,0)"/></linearGradient><linearGradient id="e6t4CrjHG1e5-fill" x1="161.635" y1="561.93" x2="162.525" y2="-11.6718" spreadMethod="pad" gradientUnits="userSpaceOnUse" gradientTransform="translate(0 0)"><stop id="e6t4CrjHG1e5-fill-0" offset="0%" stop-color="#88de1f"/><stop id="e6t4CrjHG1e5-fill-1" offset="100%" stop-color="rgba(143,234,33,0)"/></linearGradient><linearGradient id="e6t4CrjHG1e6-fill" x1="161.635" y1="561.93" x2="162.525" y2="-11.6718" spreadMethod="pad" gradientUnits="userSpaceOnUse" gradientTransform="translate(0 0)"><stop id="e6t4CrjHG1e6-fill-0" offset="0%" stop-color="#88de1f"/><stop id="e6t4CrjHG1e6-fill-1" offset="100%" stop-color="rgba(143,234,33,0)"/></linearGradient><linearGradient id="e6t4CrjHG1e7-fill" x1="161.635" y1="561.93" x2="162.525" y2="-11.6718" spreadMethod="pad" gradientUnits="userSpaceOnUse" gradientTransform="translate(0 0)"><stop id="e6t4CrjHG1e7-fill-0" offset="0%" stop-color="#88de1f"/><stop id="e6t4CrjHG1e7-fill-1" offset="100%" stop-color="rgba(143,234,33,0)"/></linearGradient><linearGradient id="e6t4CrjHG1e8-fill" x1="161.635" y1="561.93" x2="162.525" y2="-11.6718" spreadMethod="pad" gradientUnits="userSpaceOnUse" gradientTransform="translate(0 0)"><stop id="e6t4CrjHG1e8-fill-0" offset="0%" stop-color="#88de1f"/><stop id="e6t4CrjHG1e8-fill-1" offset="100%" stop-color="rgba(143,234,33,0)"/></linearGradient><linearGradient id="e6t4CrjHG1e9-fill" x1="161.635" y1="561.93" x2="162.525" y2="-11.6718" spreadMethod="pad" gradientUnits="userSpaceOnUse" gradientTransform="translate(0 0)"><stop id="e6t4CrjHG1e9-fill-0" offset="0%" stop-color="#88de1f"/><stop id="e6t4CrjHG1e9-fill-1" offset="100%" stop-color="rgba(143,234,33,0)"/></linearGradient><linearGradient id="e6t4CrjHG1e10-fill" x1="161.635" y1="561.93" x2="162.525" y2="-11.6718" spreadMethod="pad" gradientUnits="userSpaceOnUse" gradientTransform="translate(0 0)"><stop id="e6t4CrjHG1e10-fill-0" offset="0%" stop-color="#88de1f"/><stop id="e6t4CrjHG1e10-fill-1" offset="100%" stop-color="rgba(143,234,33,0)"/></linearGradient><linearGradient id="e6t4CrjHG1e11-fill" x1="161.635" y1="561.93" x2="162.525" y2="-11.6718" spreadMethod="pad" gradientUnits="userSpaceOnUse" gradientTransform="translate(0 0)"><stop id="e6t4CrjHG1e11-fill-0" offset="0%" stop-color="#88de1f"/><stop id="e6t4CrjHG1e11-fill-1" offset="100%" stop-color="rgba(143,234,33,0)"/></linearGradient><linearGradient id="e6t4CrjHG1e12-fill" x1="161.635" y1="561.93" x2="162.525" y2="-11.6718" spreadMethod="pad" gradientUnits="userSpaceOnUse" gradientTransform="translate(0 0)"><stop id="e6t4CrjHG1e12-fill-0" offset="0%" stop-color="#88de1f"/><stop id="e6t4CrjHG1e12-fill-1" offset="100%" stop-color="rgba(143,234,33,0)"/></linearGradient><linearGradient id="e6t4CrjHG1e13-fill" x1="161.635" y1="561.93" x2="162.525" y2="-11.6718" spreadMethod="pad" gradientUnits="userSpaceOnUse" gradientTransform="translate(0 0)"><stop id="e6t4CrjHG1e13-fill-0" offset="0%" stop-color="#88de1f"/><stop id="e6t4CrjHG1e13-fill-1" offset="100%" stop-color="rgba(143,234,33,0)"/></linearGradient><linearGradient id="e6t4CrjHG1e14-fill" x1="161.635" y1="561.93" x2="162.525" y2="-11.6718" spreadMethod="pad" gradientUnits="userSpaceOnUse" gradientTransform="translate(0 0)"><stop id="e6t4CrjHG1e14-fill-0" offset="0%" stop-color="#88de1f"/><stop id="e6t4CrjHG1e14-fill-1" offset="100%" stop-color="rgba(143,234,33,0)"/></linearGradient><linearGradient id="e6t4CrjHG1e15-fill" x1="161.635" y1="561.93" x2="162.525" y2="-11.6718" spreadMethod="pad" gradientUnits="userSpaceOnUse" gradientTransform="translate(0 0)"><stop id="e6t4CrjHG1e15-fill-0" offset="0%" stop-color="#88de1f"/><stop id="e6t4CrjHG1e15-fill-1" offset="100%" stop-color="rgba(143,234,33,0)"/></linearGradient><linearGradient id="e6t4CrjHG1e16-fill" x1="161.635" y1="561.93" x2="162.525" y2="-11.6718" spreadMethod="pad" gradientUnits="userSpaceOnUse" gradientTransform="translate(0 0)"><stop id="e6t4CrjHG1e16-fill-0" offset="0%" stop-color="#88de1f"/><stop id="e6t4CrjHG1e16-fill-1" offset="100%" stop-color="rgba(143,234,33,0)"/></linearGradient><linearGradient id="e6t4CrjHG1e17-fill" x1="161.635" y1="561.93" x2="162.525" y2="-11.6718" spreadMethod="pad" gradientUnits="userSpaceOnUse" gradientTransform="translate(0 0)"><stop id="e6t4CrjHG1e17-fill-0" offset="0%" stop-color="#88de1f"/><stop id="e6t4CrjHG1e17-fill-1" offset="100%" stop-color="rgba(143,234,33,0)"/></linearGradient><linearGradient id="e6t4CrjHG1e18-fill" x1="161.635" y1="561.93" x2="162.525" y2="-11.6718" spreadMethod="pad" gradientUnits="userSpaceOnUse" gradientTransform="translate(0 0)"><stop id="e6t4CrjHG1e18-fill-0" offset="0%" stop-color="#88de1f"/><stop id="e6t4CrjHG1e18-fill-1" offset="100%" stop-color="rgba(143,234,33,0)"/></linearGradient><linearGradient id="e6t4CrjHG1e19-fill" x1="161.635" y1="561.93" x2="162.525" y2="-11.6718" spreadMethod="pad" gradientUnits="userSpaceOnUse" gradientTransform="translate(0 0)"><stop id="e6t4CrjHG1e19-fill-0" offset="0%" stop-color="#88de1f"/><stop id="e6t4CrjHG1e19-fill-1" offset="100%" stop-color="rgba(143,234,33,0)"/></linearGradient><linearGradient id="e6t4CrjHG1e20-fill" x1="161.635" y1="561.93" x2="162.525" y2="-11.6718" spreadMethod="pad" gradientUnits="userSpaceOnUse" gradientTransform="translate(0 0)"><stop id="e6t4CrjHG1e20-fill-0" offset="0%" stop-color="#88de1f"/><stop id="e6t4CrjHG1e20-fill-1" offset="100%" stop-color="rgba(143,234,33,0)"/></linearGradient><linearGradient id="e6t4CrjHG1e21-fill" x1="161.635" y1="561.93" x2="162.525" y2="-11.6718" spreadMethod="pad" gradientUnits="userSpaceOnUse" gradientTransform="translate(0 0)"><stop id="e6t4CrjHG1e21-fill-0" offset="0%" stop-color="#88de1f"/><stop id="e6t4CrjHG1e21-fill-1" offset="100%" stop-color="rgba(143,234,33,0)"/></linearGradient><linearGradient id="e6t4CrjHG1e22-fill" x1="161.635" y1="561.93" x2="162.525" y2="-11.6718" spreadMethod="pad" gradientUnits="userSpaceOnUse" gradientTransform="translate(0 0)"><stop id="e6t4CrjHG1e22-fill-0" offset="0%" stop-color="#88de1f"/><stop id="e6t4CrjHG1e22-fill-1" offset="100%" stop-color="rgba(143,234,33,0)"/></linearGradient><linearGradient id="e6t4CrjHG1e23-fill" x1="161.635" y1="561.93" x2="162.525" y2="-11.6718" spreadMethod="pad" gradientUnits="userSpaceOnUse" gradientTransform="translate(0 0)"><stop id="e6t4CrjHG1e23-fill-0" offset="0%" stop-color="#88de1f"/><stop id="e6t4CrjHG1e23-fill-1" offset="100%" stop-color="rgba(143,234,33,0)"/></linearGradient><linearGradient id="e6t4CrjHG1e24-fill" x1="161.635" y1="561.93" x2="162.525" y2="-11.6718" spreadMethod="pad" gradientUnits="userSpaceOnUse" gradientTransform="translate(0 0)"><stop id="e6t4CrjHG1e24-fill-0" offset="0%" stop-color="#88de1f"/><stop id="e6t4CrjHG1e24-fill-1" offset="100%" stop-color="rgba(143,234,33,0)"/></linearGradient><linearGradient id="e6t4CrjHG1e25-fill" x1="161.635" y1="561.93" x2="162.525" y2="-11.6718" spreadMethod="pad" gradientUnits="userSpaceOnUse" gradientTransform="translate(0 0)"><stop id="e6t4CrjHG1e25-fill-0" offset="0%" stop-color="#88de1f"/><stop id="e6t4CrjHG1e25-fill-1" offset="100%" stop-color="rgba(143,234,33,0)"/></linearGradient><linearGradient id="e6t4CrjHG1e26-fill" x1="161.635" y1="561.93" x2="162.525" y2="-11.6718" spreadMethod="pad" gradientUnits="userSpaceOnUse" gradientTransform="translate(0 0)"><stop id="e6t4CrjHG1e26-fill-0" offset="0%" stop-color="#88de1f"/><stop id="e6t4CrjHG1e26-fill-1" offset="100%" stop-color="rgba(143,234,33,0)"/></linearGradient><linearGradient id="e6t4CrjHG1e27-fill" x1="161.635" y1="561.93" x2="162.525" y2="-11.6718" spreadMethod="pad" gradientUnits="userSpaceOnUse" gradientTransform="translate(0 0)"><stop id="e6t4CrjHG1e27-fill-0" offset="0%" stop-color="#88de1f"/><stop id="e6t4CrjHG1e27-fill-1" offset="100%" stop-color="rgba(143,234,33,0)"/></linearGradient><linearGradient id="e6t4CrjHG1e28-fill" x1="161.635" y1="561.93" x2="162.525" y2="-11.6718" spreadMethod="pad" gradientUnits="userSpaceOnUse" gradientTransform="translate(0 0)"><stop id="e6t4CrjHG1e28-fill-0" offset="0%" stop-color="#88de1f"/><stop id="e6t4CrjHG1e28-fill-1" offset="100%" stop-color="rgba(143,234,33,0)"/></linearGradient><linearGradient id="e6t4CrjHG1e29-fill" x1="161.635" y1="561.93" x2="162.525" y2="-11.6718" spreadMethod="pad" gradientUnits="userSpaceOnUse" gradientTransform="translate(0 0)"><stop id="e6t4CrjHG1e29-fill-0" offset="0%" stop-color="#88de1f"/><stop id="e6t4CrjHG1e29-fill-1" offset="100%" stop-color="rgba(143,234,33,0)"/></linearGradient><linearGradient id="e6t4CrjHG1e30-fill" x1="161.635" y1="561.93" x2="162.525" y2="-11.6718" spreadMethod="pad" gradientUnits="userSpaceOnUse" gradientTransform="translate(0 0)"><stop id="e6t4CrjHG1e30-fill-0" offset="0%" stop-color="#88de1f"/><stop id="e6t4CrjHG1e30-fill-1" offset="100%" stop-color="rgba(143,234,33,0)"/></linearGradient><linearGradient id="e6t4CrjHG1e31-fill" x1="161.635" y1="561.93" x2="162.525" y2="-11.6718" spreadMethod="pad" gradientUnits="userSpaceOnUse" gradientTransform="translate(0 0)"><stop id="e6t4CrjHG1e31-fill-0" offset="0%" stop-color="#88de1f"/><stop id="e6t4CrjHG1e31-fill-1" offset="100%" stop-color="rgba(143,234,33,0)"/></linearGradient><linearGradient id="e6t4CrjHG1e32-fill" x1="161.635" y1="561.93" x2="162.525" y2="-11.6718" spreadMethod="pad" gradientUnits="userSpaceOnUse" gradientTransform="translate(0 0)"><stop id="e6t4CrjHG1e32-fill-0" offset="0%" stop-color="#88de1f"/><stop id="e6t4CrjHG1e32-fill-1" offset="100%" stop-color="rgba(143,234,33,0)"/></linearGradient><linearGradient id="e6t4CrjHG1e33-fill" x1="161.635" y1="561.93" x2="162.525" y2="-11.6718" spreadMethod="pad" gradientUnits="userSpaceOnUse" gradientTransform="translate(0 0)"><stop id="e6t4CrjHG1e33-fill-0" offset="0%" stop-color="#88de1f"/><stop id="e6t4CrjHG1e33-fill-1" offset="100%" stop-color="rgba(143,234,33,0)"/></linearGradient><linearGradient id="e6t4CrjHG1e34-fill" x1="161.635" y1="561.93" x2="162.525" y2="-11.6718" spreadMethod="pad" gradientUnits="userSpaceOnUse" gradientTransform="translate(0 0)"><stop id="e6t4CrjHG1e34-fill-0" offset="0%" stop-color="#88de1f"/><stop id="e6t4CrjHG1e34-fill-1" offset="100%" stop-color="rgba(143,234,33,0)"/></linearGradient><linearGradient id="e6t4CrjHG1e35-fill" x1="161.635" y1="561.93" x2="162.525" y2="-11.6718" spreadMethod="pad" gradientUnits="userSpaceOnUse" gradientTransform="translate(0 0)"><stop id="e6t4CrjHG1e35-fill-0" offset="0%" stop-color="#88de1f"/><stop id="e6t4CrjHG1e35-fill-1" offset="100%" stop-color="rgba(143,234,33,0)"/></linearGradient><linearGradient id="e6t4CrjHG1e36-fill" x1="161.635" y1="561.93" x2="162.525" y2="-11.6718" spreadMethod="pad" gradientUnits="userSpaceOnUse" gradientTransform="translate(0 0)"><stop id="e6t4CrjHG1e36-fill-0" offset="0%" stop-color="#88de1f"/><stop id="e6t4CrjHG1e36-fill-1" offset="100%" stop-color="rgba(143,234,33,0)"/></linearGradient><linearGradient id="e6t4CrjHG1e37-fill" x1="161.635" y1="561.93" x2="162.525" y2="-11.6718" spreadMethod="pad" gradientUnits="userSpaceOnUse" gradientTransform="translate(0 0)"><stop id="e6t4CrjHG1e37-fill-0" offset="0%" stop-color="#88de1f"/><stop id="e6t4CrjHG1e37-fill-1" offset="100%" stop-color="rgba(143,234,33,0)"/></linearGradient><linearGradient id="e6t4CrjHG1e38-fill" x1="161.635" y1="561.93" x2="162.525" y2="-11.6718" spreadMethod="pad" gradientUnits="userSpaceOnUse" gradientTransform="translate(0 0)"><stop id="e6t4CrjHG1e38-fill-0" offset="0%" stop-color="#88de1f"/><stop id="e6t4CrjHG1e38-fill-1" offset="100%" stop-color="rgba(143,234,33,0)"/></linearGradient><linearGradient id="e6t4CrjHG1e39-fill" x1="161.635" y1="561.93" x2="162.525" y2="-11.6718" spreadMethod="pad" gradientUnits="userSpaceOnUse" gradientTransform="translate(0 0)"><stop id="e6t4CrjHG1e39-fill-0" offset="0%" stop-color="#88de1f"/><stop id="e6t4CrjHG1e39-fill-1" offset="100%" stop-color="rgba(143,234,33,0)"/></linearGradient><linearGradient id="e6t4CrjHG1e40-fill" x1="161.635" y1="561.93" x2="162.525" y2="-11.6718" spreadMethod="pad" gradientUnits="userSpaceOnUse" gradientTransform="translate(0 0)"><stop id="e6t4CrjHG1e40-fill-0" offset="0%" stop-color="#88de1f"/><stop id="e6t4CrjHG1e40-fill-1" offset="100%" stop-color="rgba(143,234,33,0)"/></linearGradient><linearGradient id="e6t4CrjHG1e41-fill" x1="161.635" y1="561.93" x2="162.525" y2="-11.6718" spreadMethod="pad" gradientUnits="userSpaceOnUse" gradientTransform="translate(0 0)"><stop id="e6t4CrjHG1e41-fill-0" offset="0%" stop-color="#88de1f"/><stop id="e6t4CrjHG1e41-fill-1" offset="100%" stop-color="rgba(143,234,33,0)"/></linearGradient><linearGradient id="e6t4CrjHG1e42-fill" x1="161.635" y1="561.93" x2="162.525" y2="-11.6718" spreadMethod="pad" gradientUnits="userSpaceOnUse" gradientTransform="translate(0 0)"><stop id="e6t4CrjHG1e42-fill-0" offset="0%" stop-color="#88de1f"/><stop id="e6t4CrjHG1e42-fill-1" offset="100%" stop-color="rgba(143,234,33,0)"/></linearGradient><linearGradient id="e6t4CrjHG1e43-fill" x1="161.635" y1="561.93" x2="162.525" y2="-11.6718" spreadMethod="pad" gradientUnits="userSpaceOnUse" gradientTransform="translate(0 0)"><stop id="e6t4CrjHG1e43-fill-0" offset="0%" stop-color="#88de1f"/><stop id="e6t4CrjHG1e43-fill-1" offset="100%" stop-color="rgba(143,234,33,0)"/></linearGradient><linearGradient id="e6t4CrjHG1e44-fill" x1="161.635" y1="561.93" x2="162.525" y2="-11.6718" spreadMethod="pad" gradientUnits="userSpaceOnUse" gradientTransform="translate(0 0)"><stop id="e6t4CrjHG1e44-fill-0" offset="0%" stop-color="#88de1f"/><stop id="e6t4CrjHG1e44-fill-1" offset="100%" stop-color="rgba(143,234,33,0)"/></linearGradient><linearGradient id="e6t4CrjHG1e45-fill" x1="161.635" y1="561.93" x2="162.525" y2="-11.6718" spreadMethod="pad" gradientUnits="userSpaceOnUse" gradientTransform="translate(0 0)"><stop id="e6t4CrjHG1e45-fill-0" offset="0%" stop-color="#88de1f"/><stop id="e6t4CrjHG1e45-fill-1" offset="100%" stop-color="rgba(143,234,33,0)"/></linearGradient><linearGradient id="e6t4CrjHG1e46-fill" x1="161.635" y1="561.93" x2="162.525" y2="-11.6718" spreadMethod="pad" gradientUnits="userSpaceOnUse" gradientTransform="translate(0 0)"><stop id="e6t4CrjHG1e46-fill-0" offset="0%" stop-color="#88de1f"/><stop id="e6t4CrjHG1e46-fill-1" offset="100%" stop-color="rgba(143,234,33,0)"/></linearGradient><linearGradient id="e6t4CrjHG1e47-fill" x1="161.635" y1="561.93" x2="162.525" y2="-11.6718" spreadMethod="pad" gradientUnits="userSpaceOnUse" gradientTransform="translate(0 0)"><stop id="e6t4CrjHG1e47-fill-0" offset="0%" stop-color="#88de1f"/><stop id="e6t4CrjHG1e47-fill-1" offset="100%" stop-color="rgba(143,234,33,0)"/></linearGradient><linearGradient id="e6t4CrjHG1e48-fill" x1="161.635" y1="561.93" x2="162.525" y2="-11.6718" spreadMethod="pad" gradientUnits="userSpaceOnUse" gradientTransform="translate(0 0)"><stop id="e6t4CrjHG1e48-fill-0" offset="0%" stop-color="#88de1f"/><stop id="e6t4CrjHG1e48-fill-1" offset="100%" stop-color="rgba(143,234,33,0)"/></linearGradient><linearGradient id="e6t4CrjHG1e49-fill" x1="161.635" y1="561.93" x2="162.525" y2="-11.6718" spreadMethod="pad" gradientUnits="userSpaceOnUse" gradientTransform="translate(0 0)"><stop id="e6t4CrjHG1e49-fill-0" offset="0%" stop-color="#88de1f"/><stop id="e6t4CrjHG1e49-fill-1" offset="100%" stop-color="rgba(143,234,33,0)"/></linearGradient><linearGradient id="e6t4CrjHG1e50-fill" x1="161.635" y1="561.93" x2="162.525" y2="-11.6718" spreadMethod="pad" gradientUnits="userSpaceOnUse" gradientTransform="translate(0 0)"><stop id="e6t4CrjHG1e50-fill-0" offset="0%" stop-color="#88de1f"/><stop id="e6t4CrjHG1e50-fill-1" offset="100%" stop-color="rgba(143,234,33,0)"/></linearGradient><linearGradient id="e6t4CrjHG1e51-fill" x1="161.635" y1="561.93" x2="162.525" y2="-11.6718" spreadMethod="pad" gradientUnits="userSpaceOnUse" gradientTransform="translate(0 0)"><stop id="e6t4CrjHG1e51-fill-0" offset="0%" stop-color="#88de1f"/><stop id="e6t4CrjHG1e51-fill-1" offset="100%" stop-color="rgba(143,234,33,0)"/></linearGradient><linearGradient id="e6t4CrjHG1e52-fill" x1="161.635" y1="561.93" x2="162.525" y2="-11.6718" spreadMethod="pad" gradientUnits="userSpaceOnUse" gradientTransform="translate(0 0)"><stop id="e6t4CrjHG1e52-fill-0" offset="0%" stop-color="#88de1f"/><stop id="e6t4CrjHG1e52-fill-1" offset="100%" stop-color="rgba(143,234,33,0)"/></linearGradient><linearGradient id="e6t4CrjHG1e53-fill" x1="161.635" y1="561.93" x2="162.525" y2="-11.6718" spreadMethod="pad" gradientUnits="userSpaceOnUse" gradientTransform="translate(0 0)"><stop id="e6t4CrjHG1e53-fill-0" offset="0%" stop-color="#88de1f"/><stop id="e6t4CrjHG1e53-fill-1" offset="100%" stop-color="rgba(143,234,33,0)"/></linearGradient><linearGradient id="e6t4CrjHG1e54-fill" x1="161.635" y1="561.93" x2="162.525" y2="-11.6718" spreadMethod="pad" gradientUnits="userSpaceOnUse" gradientTransform="translate(0 0)"><stop id="e6t4CrjHG1e54-fill-0" offset="0%" stop-color="#88de1f"/><stop id="e6t4CrjHG1e54-fill-1" offset="100%" stop-color="rgba(143,234,33,0)"/></linearGradient><linearGradient id="e6t4CrjHG1e55-fill" x1="161.635" y1="561.93" x2="162.525" y2="-11.6718" spreadMethod="pad" gradientUnits="userSpaceOnUse" gradientTransform="translate(0 0)"><stop id="e6t4CrjHG1e55-fill-0" offset="0%" stop-color="#88de1f"/><stop id="e6t4CrjHG1e55-fill-1" offset="100%" stop-color="rgba(143,234,33,0)"/></linearGradient><linearGradient id="e6t4CrjHG1e56-fill" x1="161.635" y1="561.93" x2="162.525" y2="-11.6718" spreadMethod="pad" gradientUnits="userSpaceOnUse" gradientTransform="translate(0 0)"><stop id="e6t4CrjHG1e56-fill-0" offset="0%" stop-color="#88de1f"/><stop id="e6t4CrjHG1e56-fill-1" offset="100%" stop-color="rgba(143,234,33,0)"/></linearGradient><linearGradient id="e6t4CrjHG1e57-fill" x1="161.635" y1="561.93" x2="162.525" y2="-11.6718" spreadMethod="pad" gradientUnits="userSpaceOnUse" gradientTransform="translate(0 0)"><stop id="e6t4CrjHG1e57-fill-0" offset="0%" stop-color="#88de1f"/><stop id="e6t4CrjHG1e57-fill-1" offset="100%" stop-color="rgba(143,234,33,0)"/></linearGradient></defs><path id="e6t4CrjHG1e2" d="M730.019,349.963c.238-2.167.612-4.314,1.123-6.429c16.006-47.323-9.226-93.386-57.442-105.125-4.485-1.085-6.237-.779-7.015,4.456-5.637,37.927-5.102,75.44,8.261,112.008c5.345,14.62,12.667,28.092,25.662,37.489c12.392,8.988,26.514,11.141,41.104,10.571c25.916-.893,51.224-7.8,73.969-20.187c11.898-6.471,23.494-13.508,35.087-20.518c6.753-4.081,6.644-4.534,1.571-10.721-14.902-18.132-33.926-28.445-57.053-29.976-22.238-1.469-40.976,7.137-57.257,21.881-.747.663-1.284,1.562-2.062,2.172-1.281,1.174-2.764,2.135-5.948,4.379Z" opacity="0" fill="url(#e6t4CrjHG1e2-fill)"/><path id="e6t4CrjHG1e3" d="M984.549,500.244c1.895,1.075,3.719,2.27,5.458,3.576c37.113,33.441,89.403,28.516,119.283-11.108c2.77-3.688,3.18-5.418-1.32-8.207-32.59-20.197-67.25-34.563-106.12-36.776-15.538-.883-30.809.505-44.584,8.715-13.161,7.819-20.731,19.934-25.986,33.556-9.445,24.15-13.126,50.125-10.761,75.916c1.23,13.487,3.099,26.922,4.944,40.344c1.072,7.817,1.531,7.896,9.222,5.688c22.551-6.501,39.555-19.886,50.121-40.515c10.156-19.838,9.676-40.451,2.586-61.24-.313-.949-.926-1.798-1.178-2.754-.571-1.641-.866-3.383-1.665-7.195Z" opacity="0" fill="url(#e6t4CrjHG1e3-fill)"/><path id="e6t4CrjHG1e4" d="M767.698,602.964c1.595-1.484,3.283-2.864,5.051-4.131c43.046-25.352,54.059-76.706,25.242-117.106-2.685-3.752-4.211-4.666-8.222-1.213-29.057,25.019-53.171,53.759-66.961,90.168-5.511,14.558-8.775,29.54-5.083,45.145c3.503,14.903,12.784,25.763,24.198,34.868c20.197,16.264,43.865,27.579,69.175,33.072c13.234,2.879,26.61,5.133,39.966,7.406c7.778,1.325,7.991.912,8.196-7.087.575-23.463-7.083-43.703-23.584-59.978-15.87-15.648-35.676-21.383-57.635-20.866-.999.014-1.992.343-2.98.296-1.737.051-3.487-.191-7.363-.574Z" transform="translate(1.822692 0)" opacity="0" fill="url(#e6t4CrjHG1e4-fill)"/><path id="e6t4CrjHG1e5" d="M940.183,253.071c2.131.455,4.229,1.046,6.281,1.768c45.457,20.721,93.846.287,110.406-46.491c1.53-4.351,1.41-6.125-3.72-7.43-37.16-9.453-74.536-12.722-112.27-3.135-15.086,3.836-29.231,9.755-39.897,21.73-10.198,11.417-13.771,25.249-14.683,39.821-1.739,25.873,2.568,51.751,12.586,75.634c5.231,12.493,11.057,24.742,16.856,36.986c3.374,7.132,3.836,7.07,10.506,2.65c19.549-12.987,31.737-30.869,35.604-53.721c3.716-21.975-2.946-41.488-15.964-59.18-.584-.81-1.425-1.435-1.952-2.272-1.038-1.393-1.844-2.965-3.753-6.36Z" opacity="0" fill="url(#e6t4CrjHG1e5-fill)"/><path id="e6t4CrjHG1e6" d="M856.522,449.581c-.021-1.071.027-2.141.143-3.204c4.829-24.078-10.368-44.95-34.613-47.642-2.254-.247-3.089.012-3.14,2.613-.364,18.845,2.255,37.101,11.068,54.089c3.525,6.792,7.941,12.9,14.867,16.664c6.607,3.604,13.627,3.765,20.704,2.57c12.579-2.064,24.484-7.022,34.794-14.491c5.394-3.902,10.606-8.062,15.817-12.208c3.036-2.414,2.954-2.628.092-5.326-8.405-7.903-18.328-11.735-29.699-11.028-10.935.682-19.529,6.055-26.54,14.266-.323.371-.528.843-.869,1.189-.551.653-1.213,1.214-2.624,2.508Z" transform="matrix(.737769 0 0 0.737769 222.295924 123.380265)" opacity="0" fill="url(#e6t4CrjHG1e6-fill)"/><path id="e6t4CrjHG1e7" d="M971.432,398.28c-1.041-.253-2.064-.571-3.063-.953-22.061-10.787-46.109-1.391-54.872,21.375-.812,2.118-.773,2.991,1.73,3.701c18.135,5.139,36.456,7.244,55.126,3.035c7.465-1.684,14.494-4.404,19.894-10.146c5.164-5.475,7.104-12.224,7.746-19.372c1.199-12.691-.572-25.465-5.177-37.334-2.405-6.208-5.104-12.305-7.79-18.399-1.564-3.55-1.791-3.525-5.128-1.442-9.779,6.121-16.006,14.746-18.211,25.924-2.118,10.749.895,20.426,7.057,29.293.276.406.68.724.929,1.142.491.699.866,1.482,1.759,3.176Z" transform="matrix(.588351 0.114275-.114275 0.588351 448.920671 65.069889)" opacity="0" fill="url(#e6t4CrjHG1e7-fill)"/><path id="e6t4CrjHG1e8" d="M803.628,272.44c-.722-.791-1.392-1.627-2.007-2.503-12.255-21.281-37.445-26.941-57.442-12.97-1.857,1.302-2.313,2.048-.635,4.036c12.158,14.403,26.17,26.395,44,33.348c7.13,2.778,14.478,4.455,22.167,2.715c7.342-1.65,12.725-6.16,17.255-11.727c8.091-9.85,13.767-21.43,16.588-33.844c1.479-6.492,2.652-13.056,3.833-19.61.689-3.817.487-3.924-3.444-4.063-11.531-.395-21.516,3.272-29.596,11.305-7.767,7.726-10.682,17.434-10.533,28.23.002.491.159.981.131,1.467.017.853-.11,1.713-.317,3.616Z" transform="translate(1.127577 0)" opacity="0" fill="url(#e6t4CrjHG1e8-fill)"/><path id="e6t4CrjHG1e9" d="M1117.18,272.442c-.18-1.055-.3-2.12-.35-3.189c1.07-24.534-17.16-42.819-41.53-41.749-2.27.103-3.05.488-2.7,3.066c2.54,18.677,7.94,36.312,19.26,51.742c4.52,6.168,9.83,11.524,17.25,14.178c7.08,2.544,14.05,1.623,20.85-.646c12.12-3.975,23.12-10.706,32.15-19.672c4.73-4.686,9.24-9.598,13.75-14.497c2.63-2.852,2.52-3.051-.72-5.276-9.52-6.516-19.92-8.776-31.05-6.328-10.7,2.356-18.36,8.988-24.03,18.18-.26.416-.39.914-.67,1.309-.44.729-1.01,1.386-2.21,2.882Z" transform="matrix(.964089 0.265579-.265579 0.964089 110.181624-274.845641)" opacity="0" fill="url(#e6t4CrjHG1e9-fill)"/><path id="e6t4CrjHG1e10" d="M1140.56,388.01c-.9.57-1.85,1.082-2.82,1.531-23.11,8.285-33.15,32.071-22.95,54.23.95,2.058,1.6,2.64,3.86,1.341c16.33-9.41,30.62-21.072,40.62-37.386c4-6.523,6.96-13.458,6.61-21.333-.32-7.518-3.81-13.616-8.48-19.062-8.26-9.711-18.65-17.351-30.37-22.33-6.12-2.607-12.37-4.926-18.61-7.251-3.64-1.355-3.78-1.175-4.61,2.669-2.44,11.277-.6,21.755,5.87,31.131c6.23,9.015,15.26,13.606,25.91,15.375.49.085,1,.018,1.47.131.84.135,1.67.413,3.5.954Z" opacity="0" fill="url(#e6t4CrjHG1e10-fill)"/><path id="e6t4CrjHG1e11" d="M881.096,554.698c-.855.645-1.75,1.234-2.68,1.763-22.335,10.209-30.328,34.758-18.291,55.976c1.122,1.971,1.822,2.495,3.958,1.01c15.478-10.756,28.729-23.583,37.321-40.684c3.434-6.838,5.792-13.998,4.779-21.815-.955-7.465-4.941-13.246-10.059-18.278-9.049-8.978-20.047-15.713-32.143-19.685-6.324-2.08-12.749-3.861-19.164-5.651-3.736-1.044-3.861-.852-4.368,3.048-1.473,11.443,1.243,21.728,8.484,30.524c6.965,8.457,16.357,12.268,27.12,13.131.489.044.992-.067,1.472.006.852.063,1.695.271,3.571.655Z" transform="matrix(.802798 0 0 0.802798 172.204877 110.540947)" opacity="0" fill="url(#e6t4CrjHG1e11-fill)"/><path id="e6t4CrjHG1e12" d="M738.743,460.545c-.576-.904-1.092-1.842-1.547-2.81-8.417-23.07-32.26-32.974-54.36-22.646-2.053.963-2.631,1.62-1.319,3.867c9.503,16.277,21.246,30.498,37.617,40.411c6.546,3.962,13.497,6.876,21.37,6.483c7.517-.365,13.594-3.883,19.014-8.589c9.663-8.313,17.244-18.745,22.156-30.491c2.572-6.14,4.855-12.405,7.144-18.659c1.335-3.642,1.154-3.782-2.694-4.594-11.292-2.37-21.759-.474-31.098,6.052-8.979,6.276-13.518,15.339-15.227,26.001-.082.484-.011.994-.122,1.467-.13.844-.403,1.668-.934,3.508Z" transform="translate(-29.901061 14.377)" opacity="0" fill="url(#e6t4CrjHG1e12-fill)"/><path id="e6t4CrjHG1e13" d="M1061.26,608.317c.1-1.067.27-2.125.51-3.168c7.51-23.378-5.23-45.833-29.01-51.248-2.21-.5-3.07-.337-3.42,2.242-2.49,18.683-1.95,37.118,4.89,54.993c2.73,7.147,6.43,13.714,12.89,18.237c6.15,4.327,13.11,5.281,20.28,4.893c12.73-.629,25.12-4.211,36.21-10.467c5.8-3.268,11.45-6.812,17.09-10.343c3.29-2.056,3.23-2.277.7-5.281-7.46-8.803-16.89-13.731-28.27-14.314-10.94-.558-20.09,3.81-27.98,11.177-.36.331-.62.777-1,1.083-.62.586-1.34,1.07-2.89,2.196Z" transform="matrix(.031931-.636573 0.636573 0.031931 665.193266 1248.147968)" opacity="0" fill="url(#e6t4CrjHG1e13-fill)"/><path id="e6t4CrjHG1e14" d="M1146.34,532.247c.65-.857,1.34-1.672,2.09-2.44c18.61-16.021,19.45-41.826,1.99-58.854-1.63-1.581-2.45-1.89-4.09.131-11.87,14.639-21.03,30.648-24.52,49.465-1.4,7.523-1.67,15.056,1.48,22.283c3,6.903,8.43,11.347,14.75,14.755c11.19,6.105,23.63,9.513,36.35,9.96c6.66.238,13.32.161,19.98.094c3.88-.037,3.95-.256,3.35-4.143-1.77-11.401-7.24-20.524-16.65-26.956-9.04-6.185-19.12-7.23-29.7-5.064-.48.094-.93.341-1.41.404-.84.176-1.71.212-3.62.365Z" transform="translate(13.528138 23.965149)" opacity="0" fill="url(#e6t4CrjHG1e14-fill)"/><path id="e6t4CrjHG1e15" d="M1041.52,678.832c1.01.361,1.99.787,2.95,1.273c20.79,13.071,45.7,6.285,56.83-15.42c1.03-2.02,1.09-2.893-1.33-3.864-17.48-7.039-35.48-11.079-54.49-8.879-7.6.881-14.88,2.838-20.86,7.974-5.71,4.895-8.36,11.399-9.76,18.439-2.54,12.491-2.14,25.381,1.18,37.673c1.73,6.428,3.77,12.778,5.79,19.123c1.18,3.695,1.41,3.695,4.95,1.978c10.37-5.047,17.48-12.96,20.86-23.84c3.25-10.463,1.28-20.406-3.9-29.878-.24-.433-.6-.792-.81-1.234-.41-.747-.7-1.566-1.41-3.345Z" transform="matrix(.924819 0 0 0.924819 82.699127 39.769747)" opacity="0" fill="url(#e6t4CrjHG1e15-fill)"/><path id="e6t4CrjHG1e16" d="M965.737,685.721c-.299,1.028-.662,2.036-1.088,3.017-11.759,21.56-3.442,46.001,18.911,55.769c2.08.905,2.954.905,3.775-1.564c5.941-17.888,8.859-36.098,5.485-54.936-1.35-7.532-3.755-14.675-9.251-20.326-5.239-5.402-11.895-7.64-19.008-8.6-12.625-1.762-25.465-.561-37.527,3.511-6.309,2.125-12.521,4.551-18.728,6.964-3.615,1.403-3.601,1.632-1.669,5.058c5.681,10.042,14.019,16.646,25.088,19.346c10.644,2.595,20.446.015,29.578-5.746.418-.258.754-.648,1.183-.877.719-.46,1.519-.8,3.251-1.616Z" opacity="0" fill="url(#e6t4CrjHG1e16-fill)"/><path id="e6t4CrjHG1e17" d="M1151.96,728.334c1,1.939,1.87,3.937,2.61,5.984c12.71,48.312,59.15,72.853,105.85,56.086c4.34-1.565,5.64-2.786,3.4-7.584-16.19-34.757-37.3-65.769-68.6-88.925-12.52-9.256-26.05-16.465-42.07-17.148-15.29-.675-28.27,5.309-40.13,13.822-21.13,15.023-38.45,34.731-50.61,57.599-6.36,11.955-12.16,24.217-17.98,36.454-3.38,7.126-3.04,7.444,4.6,9.813c22.43,6.922,43.98,5.047,64.13-6.416c19.37-11.026,30.26-28.531,35.73-49.805.26-.965.21-2.011.52-2.949.42-1.685,1.13-3.304,2.55-6.931Z" transform="matrix(-.544854 0.561365-.561364-.544854 2185.332283 463.755903)" opacity="0" fill="url(#e6t4CrjHG1e17-fill)"/><path id="e6t4CrjHG1e18" d="M1038.69,330.848c1.05.191,2.09.45,3.11.774c22.65,9.496,46.12-1.273,53.55-24.506.69-2.162.6-3.031-1.94-3.595-18.4-4.085-36.81-5.128-55.21.151-7.35,2.112-14.22,5.233-19.28,11.278-4.83,5.763-6.38,12.613-6.61,19.787-.46,12.738,2.04,25.389,7.32,36.972c2.76,6.06,5.81,11.991,8.84,17.919c1.77,3.453,1.99,3.416,5.2,1.144c9.41-6.676,15.13-15.645,16.69-26.932c1.49-10.853-2.07-20.34-8.74-28.837-.3-.389-.72-.684-.99-1.087-.53-.668-.95-1.429-1.94-3.068Z" transform="matrix(.397015-.68765 0.68765 0.397015 397.458842 933.541237)" opacity="0" fill="url(#e6t4CrjHG1e18-fill)"/><path id="e6t4CrjHG1e19" d="M307.93,274.637c.166-1.508.427-3.003.782-4.476c11.144-32.946-6.423-65.016-39.992-73.188-3.122-.755-4.341-.542-4.884,3.102-3.924,26.405-3.551,52.522,5.752,77.981c3.721,10.178,8.819,19.557,17.866,26.099c8.627,6.258,18.459,7.757,28.617,7.36c18.042-.622,35.662-5.43,51.497-14.054c8.283-4.506,16.357-9.405,24.428-14.285c4.701-2.841,4.626-3.156,1.094-7.464-10.375-12.624-23.62-19.803-39.721-20.869-15.482-1.023-28.528,4.968-39.862,15.233-.52.462-.894,1.088-1.436,1.513-.892.817-1.924,1.486-4.141,3.048Z" opacity="0" fill="url(#e6t4CrjHG1e19-fill)"/><path id="e6t4CrjHG1e20" d="M485.135,379.263c1.319.749,2.588,1.581,3.8,2.491c25.838,23.281,62.243,19.852,83.042-7.734c1.93-2.568,2.218-3.772-.914-5.714-22.692-14.061-46.82-24.062-73.882-25.603-10.819-.615-21.451.351-31.041,6.067-9.163,5.444-14.433,13.878-18.092,23.362-6.575,16.813-9.138,34.897-7.491,52.852.856,9.391,2.157,18.744,3.442,28.088.746,5.442,1.065,5.498,6.42,3.961c15.7-4.527,27.539-13.845,34.894-28.207c7.071-13.811,6.737-28.163,1.801-42.636-.218-.661-.645-1.252-.82-1.917-.398-1.143-.603-2.356-1.159-5.01Z" opacity="0" fill="url(#e6t4CrjHG1e20-fill)"/><path id="e6t4CrjHG1e21" d="M334.161,450.777c1.111-1.033,2.286-1.994,3.517-2.876c29.969-17.65,37.636-53.403,17.574-81.53-1.87-2.612-2.932-3.248-5.725-.844-20.229,17.418-37.017,37.427-46.618,62.775-3.837,10.136-6.109,20.566-3.539,31.43c2.439,10.376,8.901,17.936,16.847,24.275c14.061,11.323,30.539,19.201,48.16,23.025c9.214,2.005,18.526,3.574,27.824,5.156c5.415.923,5.564.635,5.707-4.934.399-16.335-4.932-30.426-16.42-41.757-11.049-10.893-24.838-14.886-40.125-14.527-.696.01-1.388.24-2.075.207-1.209.035-2.428-.133-5.127-.4Z" opacity="0" fill="url(#e6t4CrjHG1e21-fill)"/><path id="e6t4CrjHG1e22" d="M454.247,207.181c1.483.317,2.944.728,4.373,1.231c31.647,14.426,65.332.2,76.865-32.367c1.068-3.03.979-4.265-2.592-5.173-25.871-6.581-51.891-8.857-78.161-2.183-10.503,2.671-20.351,6.792-27.776,15.129-7.1,7.948-9.588,17.578-10.222,27.723-1.211,18.013,1.787,36.029,8.761,52.657c3.643,8.697,7.698,17.225,11.736,25.75c2.349,4.965,2.671,4.921,7.314,1.844c13.61-9.041,22.096-21.49,24.788-37.4c2.587-15.299-2.051-28.885-11.114-41.201-.407-.565-.992-1-1.36-1.582-.722-.97-1.283-2.065-2.612-4.428Z" opacity="0" fill="url(#e6t4CrjHG1e22-fill)"/><path id="e6t4CrjHG1e23" d="M396.002,343.993c-.015-.746.019-1.491.099-2.231c3.362-16.763-7.218-31.294-24.097-33.169-1.57-.172-2.151.009-2.186,1.82-.254,13.12,1.569,25.829,7.705,37.657c2.454,4.728,5.529,8.98,10.351,11.601c4.599,2.509,9.487,2.622,14.414,1.79c8.757-1.437,17.046-4.889,24.224-10.089c3.755-2.717,7.383-5.613,11.011-8.5c2.114-1.68,2.057-1.829.064-3.707-5.851-5.503-12.76-8.171-20.676-7.678-7.613.474-13.597,4.215-18.477,9.932-.225.258-.368.587-.605.828-.384.454-.845.845-1.827,1.746Z" transform="matrix(.758907 0 0 0.758907 97.508897 80.822444)" opacity="0" fill="url(#e6t4CrjHG1e23-fill)"/><path id="e6t4CrjHG1e24" d="M476.003,308.275c-.725-.175-1.437-.397-2.133-.663-15.359-7.51-32.101-.968-38.202,14.881-.565,1.475-.538,2.083,1.205,2.577c12.625,3.578,25.381,5.043,38.379,2.113c5.197-1.172,10.09-3.066,13.85-7.064c3.595-3.811,4.946-8.51,5.393-13.486.834-8.836-.399-17.729-3.605-25.992-1.674-4.323-3.553-8.567-5.423-12.81-1.089-2.471-1.247-2.454-3.57-1.004-6.808,4.262-11.144,10.266-12.679,18.048-1.474,7.484.624,14.221,4.913,20.394.193.283.474.505.647.796.342.486.603,1.031,1.225,2.21Z" transform="matrix(.636891 0 0 0.636891 175.08918 118.528317)" opacity="0" fill="url(#e6t4CrjHG1e24-fill)"/><path id="e6t4CrjHG1e25" d="M359.177,220.666c-.503-.551-.97-1.133-1.397-1.743-8.532-14.816-26.07-18.756-39.992-9.029-1.293.906-1.61,1.425-.442,2.809c8.465,10.028,18.22,18.376,30.633,23.217c4.964,1.934,10.08,3.101,15.433,1.89c5.111-1.149,8.859-4.289,12.013-8.164c5.633-6.858,9.585-14.919,11.549-23.563c1.029-4.519,1.846-9.089,2.668-13.652.48-2.657.339-2.732-2.398-2.828-8.027-.275-14.979,2.277-20.604,7.87-5.408,5.379-7.437,12.137-7.334,19.654.002.342.111.683.092,1.021.011.594-.077,1.192-.221,2.518Z" opacity="0" fill="url(#e6t4CrjHG1e25-fill)"/><path id="e6t4CrjHG1e26" d="M577.474,220.666c-.129-.734-.211-1.476-.245-2.22.743-17.08-11.947-29.81-28.914-29.066-1.577.072-2.124.34-1.88,2.135c1.768,13.002,5.525,25.28,13.407,36.022c3.153,4.295,6.845,8.023,12.013,9.871c4.931,1.771,9.777,1.131,14.518-.449c8.432-2.768,16.09-7.454,22.383-13.696c3.292-3.263,6.432-6.682,9.572-10.093c1.83-1.985,1.751-2.124-.507-3.673-6.628-4.537-13.865-6.11-21.612-4.405-7.449,1.64-12.785,6.257-16.728,12.657-.183.289-.273.636-.471.91-.309.508-.704.966-1.536,2.007Z" opacity="0" fill="url(#e6t4CrjHG1e26-fill)"/><path id="e6t4CrjHG1e27" d="M593.752,301.124c-.631.397-1.287.753-1.963,1.066-16.094,5.768-23.084,22.328-15.982,37.755.663,1.433,1.117,1.838,2.687.934c11.37-6.552,21.317-14.67,28.283-26.028c2.785-4.542,4.841-9.37,4.599-14.852-.224-5.235-2.649-9.48-5.904-13.272-5.749-6.76-12.982-12.079-21.139-15.546-4.265-1.815-8.618-3.429-12.962-5.048-2.53-.944-2.629-.818-3.21,1.858-1.694,7.851-.416,15.146,4.09,21.674c4.334,6.276,10.626,9.472,18.041,10.704.337.059.692.012,1.021.091.587.094,1.16.288,2.439.664Z" transform="translate(24.087402-2.31842)" opacity="0" fill="url(#e6t4CrjHG1e27-fill)"/><path id="e6t4CrjHG1e28" d="M413.11,417.173c-.596.449-1.219.859-1.866,1.228-15.549,7.107-21.115,24.198-12.734,38.97.781,1.372,1.268,1.737,2.756.703c10.776-7.488,20.001-16.418,25.983-28.324c2.39-4.761,4.032-9.745,3.327-15.188-.666-5.197-3.441-9.222-7.004-12.725-6.3-6.251-13.956-10.94-22.377-13.704-4.403-1.449-8.877-2.689-13.343-3.935-2.6-.727-2.688-.593-3.041,2.122-1.025,7.967.866,15.127,5.907,21.251c4.849,5.888,11.388,8.541,18.881,9.141.34.031.69-.046,1.025.005.593.044,1.18.188,2.486.456Z" opacity="0" fill="url(#e6t4CrjHG1e28-fill)"/><path id="e6t4CrjHG1e29" d="M314.004,351.625c-.401-.63-.761-1.283-1.077-1.957-5.86-16.061-22.46-22.956-37.846-15.766-1.429.671-1.831,1.128-.918,2.692c6.616,11.332,14.791,21.233,26.189,28.134c4.557,2.759,9.397,4.787,14.878,4.514c5.233-.254,9.464-2.703,13.237-5.979c6.728-5.788,12.006-13.051,15.426-21.228c1.79-4.276,3.38-8.637,4.974-12.991.929-2.536.803-2.633-1.877-3.199-7.861-1.65-15.148-.329-21.65,4.214-6.251,4.37-9.411,10.679-10.601,18.102-.057.337-.008.692-.085,1.021-.091.588-.281,1.162-.65,2.443Z" transform="matrix(.785574 0 0 0.785573 58.832085 73.954483)" opacity="0" fill="url(#e6t4CrjHG1e29-fill)"/><path id="e6t4CrjHG1e30" d="M538.542,454.502c.07-.742.188-1.479.351-2.205c5.235-16.276-3.636-31.909-20.195-35.679-1.54-.348-2.138-.234-2.378,1.561-1.734,13.007-1.359,25.841,3.402,38.286c1.904,4.976,4.478,9.548,8.973,12.697c4.287,3.012,9.13,3.676,14.12,3.407c8.864-.439,17.489-2.932,25.208-7.288c4.038-2.275,7.971-4.743,11.902-7.201c2.29-1.431,2.25-1.585.482-3.677-5.192-6.128-11.755-9.559-19.677-9.964-7.617-.389-13.985,2.652-19.481,7.781-.252.23-.431.541-.694.754-.432.408-.935.744-2.013,1.528Z" transform="translate(37.927063-2.051175)" opacity="0" fill="url(#e6t4CrjHG1e30-fill)"/><path id="e6t4CrjHG1e31" d="M597.776,401.544c.447-.597.931-1.164,1.45-1.698c12.957-11.155,13.545-29.12,1.384-40.975-1.132-1.101-1.701-1.316-2.842.091-8.266,10.192-14.641,21.337-17.073,34.438-.971,5.238-1.16,10.482,1.032,15.513c2.086,4.806,5.871,7.9,10.269,10.273c7.79,4.25,16.449,6.623,25.308,6.934c4.632.166,9.274.112,13.91.066c2.7-.026,2.747-.179,2.33-2.885-1.233-7.937-5.042-14.289-11.589-18.767-6.295-4.306-13.314-5.034-20.679-3.525-.335.065-.65.237-.986.281-.581.123-1.185.147-2.514.254Z" transform="matrix(-.544299-.4737 0.4737-.5443 769.711898 896.729584)" opacity="0" fill="url(#e6t4CrjHG1e31-fill)"/><path id="e6t4CrjHG1e32" d="M524.799,503.598c.702.252,1.387.548,2.05.886c14.474,9.101,31.816,4.376,39.567-10.735.719-1.406.757-2.014-.924-2.691-12.173-4.9-24.7-7.712-37.936-6.181-5.292.613-10.36,1.976-14.523,5.552-3.98,3.407-5.822,7.936-6.796,12.837-1.769,8.696-1.488,17.67.821,26.228c1.205,4.475,2.622,8.896,4.031,13.313.82,2.573.979,2.573,3.443,1.378c7.223-3.514,12.172-9.023,14.525-16.598c2.262-7.284.892-14.207-2.717-20.801-.161-.301-.417-.552-.558-.86-.289-.519-.49-1.089-.983-2.328Z" transform="matrix(-.126917-.723227 0.723227-.126917 229.259941 934.720215)" opacity="0" fill="url(#e6t4CrjHG1e32-fill)"/><path id="e6t4CrjHG1e33" d="M472.037,508.392c-.208.716-.461,1.418-.758,2.101-8.186,15.009-2.396,32.026,13.167,38.826c1.448.63,2.056.63,2.628-1.089c4.136-12.453,6.167-25.131,3.818-38.247-.939-5.243-2.614-10.216-6.44-14.15-3.648-3.761-8.282-5.32-13.234-5.988-8.789-1.227-17.728-.391-26.126,2.444-4.393,1.48-8.717,3.169-13.038,4.849-2.517.977-2.508,1.136-1.162,3.521c3.954,6.991,9.76,11.59,17.466,13.469c7.41,1.807,14.235.01,20.592-4c.291-.18.525-.451.824-.611.501-.32,1.057-.557,2.263-1.125Z" opacity="0" fill="url(#e6t4CrjHG1e33-fill)"/><path id="e6t4CrjHG1e34" d="M601.688,538.06c.693,1.35,1.299,2.741,1.814,4.166c8.851,33.635,41.179,50.72,73.696,39.047c3.022-1.09,3.922-1.939,2.367-5.28-11.272-24.198-25.972-45.788-47.762-61.91-8.712-6.444-18.134-11.463-29.288-11.938-10.648-.47-19.679,3.696-27.937,9.623-14.715,10.459-26.771,24.179-35.235,40.1-4.431,8.324-8.469,16.86-12.516,25.38-2.359,4.961-2.122,5.182,3.199,6.831c15.613,4.82,30.622,3.514,44.646-4.466c13.484-7.677,21.071-19.863,24.875-34.675.18-.672.147-1.4.365-2.053.294-1.173.787-2.3,1.776-4.825Z" transform="translate(10.646362-1.846786)" opacity="0" fill="url(#e6t4CrjHG1e34-fill)"/><path id="e6t4CrjHG1e35" d="M522.828,261.33c.734.134,1.457.314,2.167.539c15.767,6.612,32.103-.886,37.28-17.061.478-1.505.416-2.11-1.352-2.503-12.811-2.843-25.629-3.57-38.437.106-5.12,1.47-9.896,3.643-13.419,7.851-3.369,4.013-4.446,8.782-4.605,13.776-.324,8.869,1.421,17.676,5.098,25.74c1.921,4.219,4.042,8.348,6.154,12.475c1.229,2.405,1.387,2.379,3.622.797c6.551-4.648,10.533-10.893,11.616-18.75c1.04-7.556-1.443-14.161-6.082-20.077-.208-.271-.502-.476-.692-.756-.369-.466-.661-.995-1.35-2.137Z" transform="matrix(.69688-.717188 0.717188 0.69688-33.392194 465.061968)" opacity="0" fill="url(#e6t4CrjHG1e35-fill)"/><path id="e6t4CrjHG1e36" d="M220.92,139.073c.547-.931,1.152-1.826,1.812-2.678c16.835-18.142,14.776-44.0804-4.635-59.1685-1.807-1.4-2.66-1.6171-4.075.5911-10.242,15.9984-17.611,33.0624-18.99,52.3014-.551,7.692.026,15.266,3.993,22.15c3.777,6.577,9.723,10.415,16.433,13.117c11.894,4.854,24.734,6.867,37.528,5.883c6.69-.511,13.359-1.339,20.021-2.155c3.88-.474,3.923-.701,2.885-4.527-3.056-11.218-9.563-19.739-19.705-25.123-9.753-5.176-19.968-5.088-30.318-1.727-.472.148-.897.446-1.373.563-.817.271-1.682.404-3.576.773Z" opacity="0" fill="url(#e6t4CrjHG1e36-fill)"/><path id="e6t4CrjHG1e37" d="M201.225,279.583c1.022-.347,2.064-.629,3.121-.842c24.599-2.725,39.996-23.702,35.168-47.808-.453-2.241-.957-2.963-3.471-2.216-18.208,5.412-34.939,13.51-48.558,27.168-5.444,5.462-9.959,11.571-11.457,19.373-1.44,7.447.552,14.238,3.863,20.669c5.829,11.449,14.231,21.365,24.556,28.982c5.397,3.987,10.986,7.719,16.561,11.456c3.246,2.177,3.427,2.034,5.142-1.54c5.02-10.488,5.666-21.19,1.509-31.894-3.998-10.292-11.786-16.902-21.816-21.124-.454-.196-.97-.249-1.407-.471-.795-.329-1.537-.793-3.211-1.753Z" opacity="0" fill="url(#e6t4CrjHG1e37-fill)"/><path id="e6t4CrjHG1e38" d="M368.646,118.851c.871.638,1.7,1.331,2.481,2.074c16.341,18.588,42.355,19.168,59.333,1.387c1.576-1.656,1.879-2.483-.175-4.114-14.878-11.811-31.107-20.8716-50.107-24.1942-7.596-1.3272-15.19-1.5215-22.44,1.7271-6.926,3.0911-11.347,8.6181-14.716,15.0191-6.035,11.341-9.339,23.911-9.656,36.738-.17,6.708-.023,13.426.114,20.137.079,3.908.3,3.973,4.211,3.329c11.471-1.904,20.607-7.513,26.992-17.057c6.137-9.178,7.085-19.35,4.791-29.987-.1-.485-.353-.938-.422-1.423-.186-.84-.231-1.714-.406-3.636Z" opacity="0" fill="url(#e6t4CrjHG1e38-fill)"/><path id="e6t4CrjHG1e39" d="M291.078,131.008c-.166-.504-.299-1.018-.399-1.538-1.222-12.105-11.459-19.774-23.331-17.516-1.104.211-1.461.456-1.106,1.695c2.573,8.976,6.473,17.239,13.121,23.999c2.659,2.703,5.64,4.951,9.468,5.725c3.653.743,7.001-.203,10.178-1.8c5.656-2.81,10.57-6.892,14.364-11.931c1.986-2.634,3.847-5.363,5.711-8.086c1.086-1.585,1.016-1.674-.732-2.535-5.132-2.518-10.389-2.886-15.67-.895-5.079,1.916-8.365,5.713-10.489,10.623-.099.222-.127.475-.238.689-.166.389-.397.752-.877,1.57Z" opacity="0" fill="url(#e6t4CrjHG1e39-fill)"/><path id="e6t4CrjHG1e40" d="M209.047,197.042c-.076-.525-.119-1.054-.129-1.584.877-12.135-7.89-21.448-19.974-21.264-1.124.019-1.518.198-1.381,1.48.992,9.285,3.415,18.095,8.803,25.896c2.155,3.119,4.705,5.847,8.344,7.266c3.471,1.361,6.932,1.004,10.336-.024c6.054-1.796,11.597-4.974,16.2-9.286c2.408-2.253,4.711-4.622,7.015-6.984c1.342-1.375,1.288-1.475-.286-2.623-4.623-3.362-9.738-4.629-15.283-3.574-5.332,1.015-9.222,4.191-12.158,8.663-.135.202-.207.446-.353.638-.23.355-.521.672-1.134,1.396Z" opacity="0" fill="url(#e6t4CrjHG1e40-fill)"/><path id="e6t4CrjHG1e41" d="M41.7526,43.7963c.3806-.6482.8019-1.2709,1.2612-1.8643C54.7349,29.3018,53.3014,11.2432,39.7875,0.738787c-1.2579-.974666-1.8525-1.125826-2.837.411543C29.8196,12.2884,24.6896,24.1682,23.7292,37.5624c-.3832,5.3553.0181,10.6287,2.7797,15.4211c2.6297,4.5787,6.7696,7.2508,11.4409,9.1322c8.2809,3.3797,17.2204,4.7811,26.1271,4.0959c4.6578-.3557,9.3007-.9321,13.9388-1.5004c2.7013-.3301,2.731-.4879,2.0087-3.1516-2.128-7.8104-6.6578-13.7426-13.7187-17.491-6.7902-3.6033-13.9019-3.5422-21.1075-1.2023-.3287.1032-.6246.3104-.9558.3923-.5687.1885-1.1711.2813-2.4898.5377Z" transform="matrix(.48177 0.365468-.365468 0.48177 18.629465-9.929849)" opacity="0" fill="url(#e6t4CrjHG1e41-fill)"/><path id="e6t4CrjHG1e42" d="M100.618,127.037c.444.606.849,1.24,1.212,1.896c6.955,15.765,24.104,21.601,39.102,13.353c1.393-.769,1.768-1.255.746-2.768-7.403-10.959-16.28-20.375-28.198-26.562-4.766-2.473-9.767-4.193-15.2609-3.555-5.2459.601-9.339,3.344-12.9167,6.888-6.3831,6.266-11.2105,13.919-14.109,22.369-1.5181,4.417-2.8278,8.909-4.1429,13.393-.7668,2.611-.6337,2.701,2.0982,3.092c8.0146,1.14,15.2557-.67,21.4942-5.669c5.998-4.808,8.7585-11.362,9.4641-18.905.035-.343-.038-.696.018-1.033.052-.597.206-1.187.493-2.499Z" opacity="0" fill="url(#e6t4CrjHG1e42-fill)"/><path id="e6t4CrjHG1e43" d="M17.8723,128.729c.7117-.241,1.4376-.437,2.1731-.586c17.1261-1.897,27.8451-16.501,24.4838-33.2843-.3149-1.5598-.666-2.0628-2.416-1.5429-12.677,3.7684-24.3245,9.4062-33.80642,18.9152-3.79037,3.802-6.93362,8.055-7.976068,13.487-1.002691,5.184.383758,9.913,2.689288,14.39c4.05797,7.97,9.9073,14.874,17.0958,20.177c3.7576,2.776,7.6481,5.374,11.5297,7.976c2.2602,1.516,2.3858,1.416,3.5802-1.072c3.4948-7.302,3.9441-14.753,1.0505-22.205-2.7836-7.165-8.2057-11.767-15.1883-14.706-.3163-.137-.6756-.174-.9798-.328-.5536-.229-1.0702-.553-2.2358-1.221Z" transform="translate(-.000265 0)" opacity="0" fill="url(#e6t4CrjHG1e43-fill)"/><path id="e6t4CrjHG1e44" d="M121.57,42.993c.606.4443,1.183.9265,1.727,1.4437c11.377,12.9408,29.488,13.3452,41.308.9656c1.097-1.1526,1.307-1.7288-.122-2.8641-10.358-8.2231-21.657-14.5308-34.885-16.844-5.288-.924-10.575-1.0593-15.623,1.2024-4.822,2.152-7.9,5.9997-10.245,10.4563-4.2015,7.8957-6.5018,16.647-6.7229,25.5773-.1183,4.6699-.0155,9.3474.0798,14.0192.0546,2.7208.2086,2.7664,2.9321,2.3177c7.986-1.3253,14.346-5.2305,18.791-11.8751c4.273-6.3899,4.933-13.4712,3.336-20.8769-.07-.3375-.246-.6528-.294-.9906-.13-.5849-.161-1.1936-.282-2.5315Z" transform="translate(-.000265 0)" opacity="0" fill="url(#e6t4CrjHG1e44-fill)"/><path id="e6t4CrjHG1e45" d="M67.4874,93.0118c.1448-.3399.311-.67.4977-.9882c4.9206-6.8943,3.0867-15.6085-4.1621-19.8804-.6745-.3961-.9739-.4324-1.3573.379-2.7765,5.8784-4.5308,11.9927-4.1572,18.5832.1498,2.635.6768,5.1808,2.3244,7.3436c1.5699,2.067,3.7562,3.11,6.1519,3.733c4.2497,1.127,8.6961,1.249,12.9954.355c2.2485-.466,4.4758-1.039,6.7013-1.608c1.2963-.33,1.3009-.409.7813-1.6624-1.5284-3.6741-4.1097-6.2815-7.7878-7.6652-3.5369-1.33-7.0003-.8532-10.3662.7405-.1538.0709-.285.1905-.4413.2513-.2655.1276-.5533.2108-1.1801.4186Z" opacity="0" fill="url(#e6t4CrjHG1e45-fill)"/><path id="e6t4CrjHG1e46" d="M110.893,93.0994c-.292-.2264-.569-.4711-.83-.7324-5.418-6.5106-14.3121-6.9505-20.2853-1.0247-.5545.5518-.6657.8321.0218,1.409c4.9802,4.1787,10.4485,7.4287,16.9175,8.7417c2.587.524,5.183.661,7.693-.383c2.398-.993,3.962-2.8428,5.174-5.0015c2.17-3.824,3.416-8.0937,3.644-12.479.12-2.2932.132-4.593.148-6.8899.009-1.3378-.066-1.3622-1.41-1.178-3.942.5449-7.12,2.3791-9.392,5.585-2.185,3.0831-2.604,6.554-1.917,10.2144.029.1668.111.324.13.4907.057.2891.064.5886.106,1.2477Z" transform="matrix(.616153 0 0 0.616153 44.432815 40.987769)" opacity="0" fill="url(#e6t4CrjHG1e46-fill)"/><path id="e6t4CrjHG1e47" d="M75.8646,29.7996c-.1154-.351-.2082-.7087-.2779-1.071-.8503-8.4274-7.9773-13.7664-16.2431-12.1947-.7683.1473-1.0172.3174-.7701,1.1801c1.7915,6.2495,4.5067,12.0019,9.1353,16.7084c1.8509,1.8814,3.9264,3.4468,6.5915,3.9853c2.5435.5178,4.8743-.141,7.0861-1.2528c3.9374-1.9564,7.359-4.7985,10.0003-8.3065c1.3823-1.8338,2.6783-3.7337,3.9757-5.6292.756-1.1037.7074-1.1659-.5098-1.7649-3.5725-1.7529-7.2325-2.0096-10.9095-.623-3.5355,1.3338-5.8237,3.977-7.3019,7.3952-.0688.1548-.0885.3312-.1659.48-.1153.271-.2768.5234-.6107,1.0931Z" transform="translate(-7.606612 12.84805)" opacity="0" fill="url(#e6t4CrjHG1e47-fill)"/><path id="e6t4CrjHG1e48" d="M174.529,74.0889c.091-.3582.205-.7099.34-1.053c3.801-7.5694.649-15.8976-7.171-19.0033-.728-.2877-1.029-.2775-1.283.5832-1.839,6.2357-2.632,12.5471-1.248,19.0017.553,2.5805,1.465,5.0149,3.426,6.8985c1.869,1.8008,4.19,2.4946,6.653,2.7422c4.373.4599,8.785-.1043,12.895-1.649c2.15-.8066,4.263-1.7153,6.375-2.6195c1.23-.5263,1.222-.6049.516-1.7632-2.076-3.3952-5.027-5.5745-8.875-6.3758-3.699-.7699-7.048.2341-10.129,2.3267-.141.0938-.252.2322-.397.3162-.243.167-.514.2934-1.102.5953Z" opacity="0" fill="url(#e6t4CrjHG1e48-fill)"/><path id="e6t4CrjHG1e49" d="M170.26,122.864c-.366.052-.734.08-1.103.084-8.445-.658-14.963,5.408-14.883,13.822.008.782.132,1.057,1.025.967c6.468-.654,12.611-2.306,18.064-6.026c2.18-1.488,4.089-3.253,5.091-5.78.961-2.411.726-4.822.025-7.196-1.227-4.222-3.417-8.093-6.401-11.315-1.559-1.686-3.199-3.298-4.834-4.912-.952-.939-1.022-.903-1.828.189-2.359,3.205-3.261,6.761-2.548,10.626.685,3.716,2.88,6.437,5.982,8.498.14.095.31.146.443.249.246.161.466.365.967.794Z" opacity="0" fill="url(#e6t4CrjHG1e49-fill)"/><path id="e6t4CrjHG1e50" d="M60.3729,129.558c-.3602.082-.7251.141-1.0923.177-8.47.057-14.4529,6.653-13.6622,15.03.0748.778.2209,1.042,1.1029.877c6.3898-1.199,12.3711-3.363,17.4903-7.531c2.0465-1.666,3.7994-3.586,4.5851-6.189.7537-2.484.316-4.866-.5838-7.172-1.5791-4.104-4.0883-7.776-7.3336-10.735-1.6963-1.547-3.4664-3.016-5.2321-4.485-1.0281-.856-1.0946-.813-1.805.342-2.0797,3.393-2.678,7.013-1.6418,10.804.997,3.644,3.4142,6.17,6.679,7.962.1477.083.3215.119.4624.21.259.14.4952.325,1.0311.71Z" transform="matrix(.787052 0 0 0.787052 12.215749 27.111363)" opacity="0" fill="url(#e6t4CrjHG1e50-fill)"/><path id="e6t4CrjHG1e51" d="M28.878,79.825c-.0534-.3656-.0834-.7339-.0898-1.1028.6102-8.4482-5.4936-14.9322-13.9066-14.804-.7821.0131-1.0566.138-.9613,1.0303.6912,6.4643,2.3777,12.5977,6.1289,18.0294c1.5002,2.1714,3.2759,4.0702,5.8089,5.0585c2.4167.947,4.826.6984,7.1959-.0168c4.215-1.2509,8.074-3.4629,11.2787-6.465c1.6768-1.569,3.2799-3.218,4.8837-4.8624.9343-.9574.8972-1.027-.199-1.8263-3.2182-2.3406-6.7798-3.2222-10.6403-2.488-3.7121.7067-6.4204,2.9174-8.4639,6.0308-.0943.1407-.144.3111-.2458.4444-.1601.2472-.3626.4681-.7894.9719Z" transform="matrix(.797966-.602702 0.602702 0.797966-39.53444 34.633399)" opacity="0" fill="url(#e6t4CrjHG1e51-fill)"/><path id="e6t4CrjHG1e52" d="M119.003,173.558c.182-.321.384-.63.606-.925c5.668-6.295,4.83-15.16-1.889-20.224-.626-.47-.919-.54-1.392.223-3.423,5.527-5.857,11.404-6.23,17.995-.149,2.635.087,5.224,1.48,7.559c1.326,2.231,3.381,3.514,5.69,4.404c4.096,1.601,8.5,2.224,12.873,1.821c2.286-.209,4.564-.526,6.84-.84c1.325-.182,1.338-.26.964-1.564-1.104-3.823-3.374-6.705-6.872-8.496-3.364-1.721-6.859-1.638-10.384-.435-.16.053-.304.157-.467.2-.278.096-.573.146-1.219.282Z" opacity="0" fill="url(#e6t4CrjHG1e52-fill)"/><path id="e6t4CrjHG1e53" d="M157.462,166.736c.324-.179.658-.337,1-.474c8.12-2.412,12.03-10.413,8.939-18.238-.288-.727-.502-.94-1.303-.536-5.804,2.93-10.946,6.674-14.703,12.102-1.502,2.17-2.651,4.502-2.681,7.221-.033,2.595,1.051,4.761,2.557,6.726c2.659,3.501,6.091,6.331,10.031,8.269c2.06,1.014,4.169,1.932,6.274,2.851c1.226.536,1.278.477,1.638-.831c1.054-3.837.621-7.481-1.43-10.833-1.972-3.223-4.996-4.976-8.631-5.789-.165-.038-.342-.025-.502-.073-.288-.062-.566-.174-1.189-.395Z" opacity="0" fill="url(#e6t4CrjHG1e53-fill)"/><path id="e6t4CrjHG1e54" d="M93.3193,191.28c.2663.257.5157.529.7468.817c4.6954,7.05,13.4919,8.432,20.0619,3.175.61-.49.75-.756.128-1.403-4.508-4.685-9.599-8.498-15.8925-10.491-2.5162-.796-5.083-1.208-7.6903-.437-2.49.733-4.2415,2.406-5.6759,4.423-2.564,3.572-4.2577,7.685-4.9502,12.021-.3634,2.268-.6196,4.553-.8791,6.835-.1516,1.33-.0796,1.362,1.2765,1.322c3.9774-.123,7.3321-1.609,9.9326-4.555c2.5002-2.834,3.2855-6.24,2.9922-9.953-.0117-.169-.0769-.334-.0781-.502-.025-.293-.0004-.592.0281-1.252Z" transform="matrix(.735728 0 0 0.735727 25.60414 53.1303)" opacity="0" fill="url(#e6t4CrjHG1e54-fill)"/><path id="e6t4CrjHG1e55" d="M68.4995,182.742c-.2391.282-.4959.548-.7686.796-6.7452,5.124-7.5804,13.989-1.9263,20.22.5266.579.8017.702,1.4086.041c4.3962-4.789,7.8863-10.107,9.4858-16.512.639-2.56.8913-5.148-.0401-7.702-.8856-2.44-2.6639-4.085-4.7665-5.391-3.7236-2.338-7.9336-3.774-12.3044-4.196-2.2856-.222-4.5826-.336-6.8766-.454-1.336-.069-1.3637.005-1.2396,1.356.369,3.962,2.06,7.218,5.1616,9.631c2.9828,2.32,6.4317,2.893,10.1189,2.37.168-.022.3288-.097.4961-.109.2913-.043.5909-.037,1.2511-.05Z" transform="matrix(.944309 0.329059-.329059 0.944309 58.095476-10.230417)" opacity="0" fill="url(#e6t4CrjHG1e55-fill)"/><path id="e6t4CrjHG1e56" d="M143.853,220.37c.039.751.031,1.503-.025,2.251-2.824,16.998,8.321,31.279,25.386,32.601c1.587.12,2.167-.081,2.141-1.907-.185-13.224-2.448-25.964-9.026-37.672-2.631-4.68-5.871-8.86-10.816-11.338-4.717-2.372-9.644-2.322-14.579-1.318-8.773,1.741-17.005,5.497-24.061,10.976-3.691,2.863-7.248,5.901-10.806,8.931-2.0726,1.764-2.01,1.912.06,3.737c6.079,5.346,13.127,7.801,21.085,7.039c7.652-.734,13.553-4.703,18.278-10.625.217-.267.35-.603.581-.854.371-.471.823-.88,1.782-1.821Z" opacity="0" fill="url(#e6t4CrjHG1e56-fill)"/><path id="e6t4CrjHG1e57" d="M140.323,88.2924c.304.2092.595.4374.87.6833c5.785,6.187,14.689,6.1128,20.311-.1479.521-.5829.616-.8691-.103-1.4054-5.214-3.8843-10.86-6.8133-17.394-7.7506-2.613-.3743-5.213-.3611-7.659.8262-2.336,1.13-3.791,3.0669-4.876,5.292-1.945,3.9428-2.944,8.2773-2.918,12.6685.013,2.2965.134,4.5925.251,6.8865.068,1.336.144,1.357,1.475,1.095c3.904-.771,6.97-2.786,9.054-6.118c2.003-3.2038,2.221-6.6931,1.325-10.3077-.04-.1648-.131-.3171-.159-.4823-.073-.2855-.098-.5841-.177-1.2396Z" opacity="0" fill="url(#e6t4CrjHG1e57-fill)"/></svg>
